# xmcd
#
# Track frame offsets:
#	150
#	22386
#	34577
#	50620
#	62045
#	71995
#	89233
#	105389
#	127359
#	138374
#	153764
#	166174
#
# Disc length: 2642 seconds
#
# Revision: 1
# Processed by: cddbd v1.5.2PL0 Copyright (c) Steve Scherf et al.
# Submitted via: dBpowerAMP V4.0
#
DISCID=b00a500c
DTITLE=Various Artist - The Blues - The Electric Blues Experience
DYEAR=2003
DGENRE=Blues
TTITLE0=BB King - The Thrill is Gone
TTITLE1=Canned Heat - Got My Mojo Working
TTITLE2=Mike Bloomfield - Dont Lie to Me
TTITLE3=John Lee Hooker - Boom Boom
TTITLE4=Buddy Guy - The First Time I Met the Blues
TTITLE5=Charlie Brown - Driftin' Blues
TTITLE6=Bb King - Its My Own Fault Baby
TTITLE7=Santana - Travelin' Blues
TTITLE8=Jimmy Reed - Baby What You Want Me to Do
TTITLE9=Gate Mouth Moore - Somebody Got to Go
TTITLE10=John Lee Hooker - Crawlin Black Spider
TTITLE11=Santana - Everyday I Have the Blues
EXTD=
EXTT0=
EXTT1=
EXTT2=
EXTT3=
EXTT4=
EXTT5=
EXTT6=
EXTT7=
EXTT8=
EXTT9=
EXTT10=
EXTT11=
PLAYORDER=
